<?xml version="1.0" encoding="UTF-8" standalone="no"?>
<!DOCTYPE svg PUBLIC "-//W3C//DTD SVG 1.1//EN" "http://www.w3.org/Graphics/SVG/1.1/DTD/svg11.dtd">
<svg width="100%" height="100%" viewBox="0 0 250 250" version="1.1" xmlns="http://www.w3.org/2000/svg" xmlns:xlink="http://www.w3.org/1999/xlink" xml:space="preserve" xmlns:serif="http://www.serif.com/" style="fill-rule:evenodd;clip-rule:evenodd;stroke-linejoin:round;stroke-miterlimit:2;">
    <g transform="matrix(1.15042,0,0,1.15042,-18.8025,-18.8025)" fill="currentColor">
        <path d="M65.119,110.183L82.228,100.305L82.228,41.038L30.901,70.672L30.901,179.328L56.564,194.145L125,154.634L176.327,184.267L125,213.901L107.891,204.023L142.109,184.267L125,174.389L73.673,204.023L125,233.656L210.545,184.267L125,134.878L56.564,174.389L48.01,169.45L48.01,159.573L116.446,120.061L116.446,41.038L125,36.099L133.554,41.038L133.554,120.061L219.099,169.45L219.099,149.695L150.663,110.183L150.663,50.916L201.99,80.55L201.99,100.305L167.772,80.55L167.772,100.305L219.099,129.939L219.099,70.672L125,16.344L99.337,31.16L99.337,110.183L48.01,139.817L48.01,80.55L65.119,70.672L65.119,110.183Z"/>
    </g>
</svg>
